# xmcd
#
# Track frame offsets:
#	150
#	10987
#	23890
#	45100
#	62075
#	77697
#	98097
#	112827
#	126712
#	140280
#
# Disc length: 2124 seconds
#
# Revision: 1
# Processed by: cddbd v1.5.1PL0 Copyright (c) Steve Scherf et al.
# Submitted via: audiograbber 1.83.01
#
DISCID=77084a0a
DTITLE=Kris Kristofferson - The Best of Krist Kristofferson
DYEAR=1900
DGENRE=
TTITLE0=Help Me Make It Through The Night
TTITLE1=Once More With Feelings
TTITLE2=To Beat The Devil
TTITLE3=Loving HER WAS Easier (Than Anythng I'll Ever Do Again)
TTITLE4=Why Me
TTITLE5=Subday Morning Coming Down
TTITLE6=The Taker
TTITLE7=Jody And The Kid
TTITLE8=Duvalier's Dream
TTITLE9=Me And Bobby McGee
EXTD=
EXTT0=
EXTT1=
EXTT2=
EXTT3=
EXTT4=
EXTT5=
EXTT6=
EXTT7=
EXTT8=
EXTT9=
PLAYORDER=
